<?xml version="1.0" encoding="iso-8859-1"?>
<!-- Uploaded to: SVG Repo, www.svgrepo.com, Generator: SVG Repo Mixer Tools -->
<svg version="1.1" id="Layer_1" xmlns="http://www.w3.org/2000/svg" xmlns:xlink="http://www.w3.org/1999/xlink" 
	 viewBox="0 0 512 512" xml:space="preserve">
<g>
	<rect x="247.172" y="111.448" style="fill:#C83741;" width="17.655" height="56.276"/>
	<rect x="247.172" y="326.621" style="fill:#C83741;" width="17.655" height="52.966"/>
</g>
<path style="fill:#FF4B4B;" d="M218.552,352.828c-9.043,0-18.087-3.439-24.974-10.327c-13.759-13.775-13.759-36.172,0-49.931
	l12.483-12.491l-24.966-24.966l-12.483,12.483c-13.784,13.784-36.172,13.768-49.94,0l0,0c-13.759-13.775-13.759-36.172,0-49.931
	c13.768-13.768,36.156-13.784,49.94,0l12.483,12.483l24.966-24.966l-12.483-12.491c-13.768-13.768-13.768-36.163,0-49.931
	c13.768-13.763,36.156-13.771,49.94,0l12.482,12.481l12.483-12.483c13.784-13.771,36.172-13.763,49.94,0
	c13.768,13.768,13.768,36.163,0,49.931l-12.483,12.491l24.966,24.966l12.483-12.483c13.784-13.784,36.172-13.768,49.94,0
	c13.759,13.759,13.759,36.156,0,49.931c-13.759,13.775-36.163,13.775-49.94,0l-12.483-12.483l-24.966,24.966l12.483,12.491
	c13.759,13.759,13.759,36.156,0,49.931c-13.759,13.775-36.163,13.775-49.94,0l-12.483-12.481L243.516,342.5
	C236.63,349.388,227.586,352.828,218.552,352.828z M218.552,292.569l-12.491,12.483c-6.879,6.879-6.879,18.078,0,24.966
	c6.905,6.888,18.103,6.871,24.974,0l12.483-12.483L218.552,292.569z M268.483,317.535l12.483,12.483
	c6.879,6.888,18.094,6.871,24.974,0c6.879-6.888,6.879-18.087,0-24.966l-12.491-12.483L268.483,317.535z M231.034,280.078
	l24.966,24.973l24.966-24.974l-24.966-24.964L231.034,280.078z M268.483,242.63l24.965,24.966l24.974-24.966l-24.974-24.966
	L268.483,242.63z M193.577,242.63l24.974,24.966l24.966-24.966l-24.966-24.966L193.577,242.63z M343.388,242.63l12.483,12.483
	c6.862,6.871,18.078,6.879,24.974,0c6.879-6.888,6.879-18.087,0-24.966c-6.888-6.888-18.103-6.871-24.974,0L343.388,242.63z
	 M131.154,255.113c6.905,6.879,18.103,6.879,24.974,0l12.483-12.483l-12.483-12.483c-6.879-6.879-18.094-6.888-24.974,0
	C124.275,237.026,124.275,248.224,131.154,255.113z M231.034,205.181l24.966,24.967l24.966-24.966l-24.966-24.974L231.034,205.181z
	 M268.483,167.724l24.965,24.966l12.491-12.483c6.879-6.879,6.879-18.087,0-24.966c-6.879-6.888-18.094-6.901-24.974,0
	L268.483,167.724z M218.552,150.078c-4.526,0-9.052,1.72-12.491,5.164c-6.879,6.879-6.879,18.087,0,24.966l12.491,12.483
	l24.966-24.967l-12.483-12.483C227.594,151.798,223.068,150.078,218.552,150.078z"/>
<circle style="fill:#FFCF65;" cx="255.999" cy="388.414" r="17.655"/>
<g>
	<path style="fill:#FF4B4B;" d="M256.029,406.069h-0.058c-9.963,0-18.262,7.637-19.09,17.565l-6.567,78.805
		c-0.429,5.148,3.631,9.561,8.797,9.561h33.778c5.164,0,9.226-4.414,8.797-9.56l-6.567-78.805
		C274.291,413.706,265.991,406.069,256.029,406.069z"/>
	<path style="fill:#FF4B4B;" d="M249.757,117.344l-22.826-22.826c-3.447-3.447-3.447-9.037,0-12.484l22.826-22.826
		c3.447-3.447,9.037-3.447,12.484,0l22.826,22.826c3.447,3.447,3.447,9.037,0,12.484l-22.826,22.826
		C258.794,120.791,253.206,120.791,249.757,117.344z"/>
</g>
<path style="fill:#C83741;" d="M264.827,28.931V8.828c0-4.875-3.948-8.828-8.828-8.828s-8.828,3.953-8.828,8.828v20.104
	c-5.255,3.058-8.828,8.687-8.828,15.207c0,9.75,7.905,17.655,17.655,17.655c9.75,0,17.655-7.905,17.655-17.655
	C273.655,37.619,270.082,31.99,264.827,28.931z"/>
</svg>